<?xml version="1.0" encoding="UTF-8"?>
<svg id="Layer_1" data-name="Layer 1" xmlns="http://www.w3.org/2000/svg" viewBox="0 0 39.14 39.14">
  <defs>
    <style>
      .cls-1 {
        fill: #0d403c;
      }

      .cls-2 {
        fill: #389d86;
      }
    </style>
  </defs>
  <circle class="cls-2" cx="19.57" cy="19.57" r="19.57"/>
  <path class="cls-1" d="M19.98,12.71c-3.59,0-6.63,2.35-7.66,5.59,1.53-.78,3.27-1.21,5.1-1.21h4.02c.4,0,.73,.33,.73,.73s-.33,.73-.73,.73h-4.02c-.76,0-1.49,.09-2.2,.25-1.18,.27-2.28,.75-3.26,1.4-2.65,1.77-4.4,4.79-4.4,8.22v.73c0,.61,.49,1.1,1.1,1.1s1.1-.49,1.1-1.1v-.73c0-2.22,.95-4.22,2.46-5.63,.9,3.45,4.04,5.99,7.77,5.99h.05c6.03-.03,10.91-5.98,10.91-13.31,0-1.95-.34-3.79-.96-5.46-.12-.32-.58-.3-.74,0-.86,1.61-2.56,2.7-4.51,2.7h-4.75Z"/>
</svg>