<svg width="46" height="32" viewBox="0 0 46 32" fill="none" xmlns="http://www.w3.org/2000/svg">
<path d="M45.1585 29.3275C45.1585 30.5602 44.159 31.5575 42.9286 31.5575H24.9772C24.3858 31.5575 23.8186 31.3225 23.4004 30.9043C22.9822 30.4861 22.7472 29.919 22.7472 29.3275C22.7472 28.7361 22.9822 28.1689 23.4004 27.7507C23.8186 27.3326 24.3858 27.0976 24.9772 27.0976H42.9286C44.1612 27.0976 45.1585 28.0949 45.1585 29.3275ZM45.1585 15.8696C45.1585 17.1022 44.159 18.0995 42.9286 18.0995H2.56586C1.97445 18.0995 1.40726 17.8645 0.989067 17.4463C0.570875 17.0282 0.335938 16.461 0.335938 15.8696C0.335938 15.2781 0.570875 14.7109 0.989067 14.2928C1.40726 13.8746 1.97445 13.6396 2.56586 13.6396H42.9286C44.1612 13.6396 45.1585 14.6392 45.1585 15.8696ZM42.9286 4.64149C43.52 4.64149 44.0872 4.40655 44.5054 3.98836C44.9236 3.57017 45.1585 3.00298 45.1585 2.41157C45.1585 1.82015 44.9236 1.25296 44.5054 0.83477C44.0872 0.416578 43.52 0.181641 42.9286 0.181641H16.0126C15.7198 0.181641 15.4298 0.239319 15.1593 0.351384C14.8887 0.463448 14.6429 0.627702 14.4358 0.83477C14.2288 1.04184 14.0645 1.28766 13.9525 1.55821C13.8404 1.82876 13.7827 2.11873 13.7827 2.41157C13.7827 2.7044 13.8404 2.99437 13.9525 3.26492C14.0645 3.53547 14.2288 3.78129 14.4358 3.98836C14.6429 4.19543 14.8887 4.35968 15.1593 4.47175C15.4298 4.58381 15.7198 4.64149 16.0126 4.64149H42.9286Z" fill="#0D403C"/>
</svg>
